<?xml version="1.0" standalone="no"?>
<!DOCTYPE svg PUBLIC "-//W3C//DTD SVG 1.1//EN" "http://www.w3.org/Graphics/SVG/1.1/DTD/svg11.dtd">
<svg width="100%" height="100%" viewBox="0 0 220 100" version="1.1" xmlns="http://www.w3.org/2000/svg" xmlns:xlink="http://www.w3.org/1999/xlink" xml:space="preserve" style="fill-rule:evenodd;clip-rule:evenodd;stroke-linejoin:round;stroke-miterlimit:1.41421;">
    <g>
        <g transform="matrix(1.69291,0,0,1.69291,-80.5459,-10.0933)">
            <text x="126.188px" y="27.339px" style="font-family:'HelveticaNeue-Medium';font-size:11.814px;fill:rgb(121,121,121);">dokku</text>
        </g>
        <g transform="matrix(3.69176,0,0,3.69176,-371.176,-144.52)">
            <text x="126.584px" y="56.977px" style="font-family:'HelveticaNeue-Medium';font-size:12px;fill:rgb(11,136,133);">clone</text>
        </g>
        <path d="M85.621,72.499C85.003,70.31 83.68,68.522 82.463,66.666C82.138,66.173 81.773,65.677 81.761,65.055C81.729,63.274 81.759,61.493 81.646,59.711C81.556,58.327 81.719,56.925 81.601,55.545C81.461,53.96 81.768,52.648 83.15,51.72C83.186,51.697 83.21,51.657 83.244,51.627C83.453,51.453 83.529,51.218 83.453,50.973C83.296,50.474 83.364,49.968 83.35,49.464C83.371,49.429 83.389,49.394 83.408,49.358C83.389,49.368 83.37,49.376 83.35,49.385C83.309,47.88 83.267,46.372 83.227,44.866C83.225,44.866 83.225,44.866 83.224,44.864C83.22,44.558 83.18,44.248 83.22,43.948C83.346,42.991 83.078,42.265 82.203,41.747C81.88,41.555 81.522,41.282 81.488,40.789C81.411,39.685 81.395,39.685 80.307,39.358C80.078,39.289 79.851,39.217 79.622,39.147C79.589,39.118 79.554,39.101 79.519,39.085C79.552,39.079 79.586,39.074 79.622,39.067C79.765,38.779 79.705,38.469 79.706,38.169C79.715,37.026 79.709,37.026 78.587,37.111C78.16,37.15 78.007,36.997 77.996,36.53C77.951,34.297 77.857,32.066 77.78,29.835C77.82,28.903 77.623,28.003 77.387,27.112C76.686,24.458 75.344,22.128 73.757,19.919C72.869,18.686 71.867,17.542 70.808,16.467C69.998,15.644 69.023,14.981 68.062,14.322C63.901,11.469 59.564,9.079 54.325,9.037C53.9,9.031 53.69,8.853 53.701,8.389C53.724,7.376 53.713,6.362 53.706,5.348C53.703,5.164 53.78,4.857 53.527,4.851C53.054,4.84 52.519,4.563 52.122,5.066C52.039,5.739 52.065,6.417 52.065,7.093C52.063,12.46 52.065,17.825 52.059,23.191C52.059,23.49 52.138,23.81 51.935,24.087C51.702,24.254 51.432,24.207 51.179,24.195C50.145,24.148 49.103,24.327 48.074,24.095C47.863,23.824 47.944,23.505 47.942,23.204C47.9,17.158 48.014,11.112 47.879,5.065C47.703,4.684 47.353,4.843 47.066,4.802C46.488,4.719 46.232,4.901 46.278,5.546C46.338,6.357 46.293,7.176 46.292,7.99C46.292,9.029 46.292,9.048 45.279,9.031C44.506,9.018 43.743,9.108 42.99,9.243C39.442,9.878 36.296,11.469 33.294,13.384C31.83,14.317 30.356,15.274 29.146,16.511C27.006,18.699 25.144,21.119 23.813,23.909C22.918,25.785 22.24,27.72 22.219,29.831C22.142,32.063 22.048,34.294 22.003,36.525C21.993,36.993 21.842,37.147 21.414,37.107C21.154,37.083 20.891,37.078 20.637,37.028C20.424,36.985 20.281,37.001 20.295,37.251C20.328,37.855 20.199,38.467 20.378,39.063C20.41,39.071 20.442,39.076 20.475,39.083C20.443,39.099 20.411,39.118 20.378,39.143C19.88,39.303 19.385,39.472 18.885,39.619C18.617,39.698 18.456,39.836 18.509,40.128C18.672,41.027 18.162,41.543 17.489,41.991C16.989,42.325 16.698,42.763 16.777,43.42C16.833,43.894 16.78,44.38 16.777,44.861C16.776,44.862 16.776,44.862 16.775,44.863C16.733,46.369 16.693,47.875 16.651,49.381C16.633,49.372 16.617,49.364 16.601,49.357C16.618,49.391 16.631,49.426 16.651,49.461C16.426,50.792 16.632,51.959 17.879,52.749C18.31,53.023 18.381,53.451 18.39,53.952C18.448,57.278 18.213,60.601 18.268,63.927C18.289,65.117 17.976,66.112 17.289,67.054C15.656,69.294 14.289,71.666 13.943,74.489C13.733,76.2 13.923,77.842 14.73,79.414C15.515,80.944 16.987,81.778 18.128,82.942C18.929,83.758 19.901,84.38 20.902,84.941C21.093,85.047 21.163,85.232 21.257,85.403C23.824,90.171 27.714,93.274 32.952,94.668C35.343,95.305 37.756,95.505 40.152,94.75C43.585,93.668 45.668,91.263 46.649,87.862C46.776,87.422 46.956,87.318 47.369,87.309C48.361,87.287 49.337,87.488 50.331,87.457C51.1,87.432 51.855,87.266 52.631,87.306C53.042,87.327 53.229,87.417 53.351,87.863C54.043,90.376 55.413,92.444 57.681,93.783C60.043,95.178 62.599,95.467 65.308,95.018C70.567,94.148 74.715,91.535 77.682,87.149C78.578,85.826 79.42,84.565 80.853,83.769C81.698,83.3 82.262,82.459 83.022,81.879C84.055,81.088 84.935,80.195 85.468,79.002C86.427,76.858 86.24,74.693 85.621,72.499ZM41.262,88.634C40.655,89.496 39.968,90.31 39.186,91.021C37.688,92.379 35.344,92.301 33.915,90.878C33.723,90.685 33.503,90.559 33.282,90.418C31.076,89.01 30.573,87.014 32.835,85.125C34.181,84.001 35.806,83.902 37.721,83.99C38.384,84.047 39.304,84.131 40.228,84.194C40.514,84.213 40.722,84.32 40.914,84.524C42.037,85.711 42.202,87.296 41.262,88.634ZM52.79,84.032C52.409,84.829 51.942,84.751 51.343,84.698C51.115,84.677 51.014,84.782 50.989,84.982C50.937,85.433 50.692,85.444 50.335,85.308C50.179,85.25 49.974,85.237 49.816,85.286C49.389,85.421 49.058,85.483 48.97,84.878C48.924,84.556 48.609,84.721 48.414,84.719C47.974,84.712 47.558,84.934 47.363,84.177C47.243,83.709 46.717,83.33 46.81,82.714C46.937,81.877 47.568,81.283 47.839,80.518C47.893,80.369 48.049,80.382 48.179,80.372C48.815,80.32 49.452,80.271 50.089,80.219C50.09,80.228 50.09,80.236 50.09,80.241C50.134,80.241 50.178,80.24 50.223,80.241C52.116,80.305 52.141,80.316 52.963,82.012C53.306,82.719 53.138,83.298 52.79,84.032ZM68.112,89.116C67.186,90.308 65.955,91.15 64.582,91.765C64.16,91.953 63.679,91.955 63.216,91.978C62.181,91.998 61.322,91.572 60.627,90.849C59.987,90.185 59.372,89.489 58.82,88.75C57.806,87.39 57.912,85.838 59.035,84.586C59.181,84.421 59.316,84.233 59.56,84.217C61.292,84.098 63.022,83.779 64.761,84.071C66.164,84.306 67.307,84.975 68.129,86.181C68.817,87.188 68.83,88.189 68.112,89.116ZM73.781,50.675C73.299,52.335 73.356,51.995 72.152,51.455C70.322,50.634 68.668,49.481 66.873,48.587C63.965,47.136 60.871,46.184 57.736,45.379C55.371,44.772 53.3,46.261 52.806,48.944C52.077,52.908 51.444,56.889 50.772,60.861C50.737,61.068 50.638,61.261 50.968,61.381C53.639,62.342 56.034,63.817 58.354,65.419C59.605,66.283 60.815,67.207 62.036,68.111C63.861,69.466 65.785,70.658 67.836,71.64C67.936,71.7 68.136,71.655 68.108,71.848C68.088,71.992 67.938,71.952 67.837,71.952C67.711,71.952 67.57,71.996 67.47,71.871C63.13,70.35 59.028,68.276 54.83,66.418C51.635,65.003 48.358,65.002 45.163,66.418C41.508,68.042 37.916,69.803 34.193,71.27C33.643,71.486 33.08,71.672 32.523,71.872C32.41,72.011 32.253,71.946 32.115,71.953C32.018,71.959 31.88,71.974 31.881,71.827C31.882,71.659 32.058,71.693 32.158,71.639C34.21,70.659 36.133,69.466 37.958,68.112C39.179,67.207 40.388,66.283 41.639,65.42C43.959,63.817 46.354,62.341 49.026,61.38C49.41,61.243 49.244,61.006 49.21,60.797C48.654,57.519 48.096,54.239 47.524,50.966C47.361,50.036 47.296,49.089 46.978,48.186C46.149,45.831 44.287,44.834 41.871,45.464C37.372,46.638 33.087,48.311 29.135,50.793C28.523,51.177 27.835,51.439 27.188,51.766C26.84,51.942 26.636,51.857 26.486,51.489C26.142,50.645 25.941,49.766 25.853,48.865C25.663,46.913 25.459,44.956 25.911,43.01C25.98,42.711 26.073,42.414 26.191,42.13C26.533,41.303 26.799,41.151 27.699,41.178C35.452,41.409 43.198,41.761 50.957,41.741C58.1,41.721 65.228,41.377 72.364,41.158C73.082,41.136 73.488,41.406 73.757,42.008C74.069,42.7 74.255,43.435 74.294,44.181C74.408,46.363 74.397,48.557 73.781,50.675Z" style="fill:rgb(11,136,133);fill-rule:nonzero;"/>
    </g>
</svg>
